<?xml version="1.0" encoding="utf-8"?>
<!-- Generator: Adobe Illustrator 18.1.1, SVG Export Plug-In . SVG Version: 6.00 Build 0)  -->
<svg version="1.1" id="Layer_1" xmlns="http://www.w3.org/2000/svg" xmlns:xlink="http://www.w3.org/1999/xlink" x="0px" y="0px"
	 width="530px" height="530px" viewBox="-246 120 530 530" enable-background="new -246 120 530 530" xml:space="preserve">
<path fill="#E8E8E8" d="M275,256.7c0-72.2-58.5-130.7-130.7-130.7h-252.6c-72.2,0-130.7,58.5-130.7,130.7v259.6
	c0,72.2,58.5,130.7,130.7,130.7h252.6c72.2,0,130.7-58.5,130.7-130.7V256.7z M-109.7,588c-4.2,0-8.3-1.7-12.4-2.4
	c1.6-12.6,6.8-35.6,24.3-49c12.6-9.7,21.3-14.8,29.7-19.3c11.6-6.3,23.6-13,38.9-28.8c38.3-39.8,14.2-82.7-1.7-111
	c-3.1-5.5-29.2-54.3-1.2-83.5c11.2-11.7,31.5-14.8,42.6-15.2c1.2,0.1,2.5,0.1,3.7-0.1c0.5,0,1,0,1.4,0c1.5,0.1,2.9,0.1,4.4,0
	c10.7,0.5,30.9,3.5,42,15.1c28,29.2,1.9,78-1.2,83.5c-18.8,33.5-33.9,72.6-3,109.4c13.4,16.1,27,23.3,40.2,30.2
	c9,4.7,18.3,9.6,29.3,18.5c17.7,14.3,23.1,38.4,24.8,50.9c-2.2,0.2-4.4,1.6-6.6,1.6L-109.7,588L-109.7,588z M222,513.2
	c0,15.1-6.9,29.2-14.9,40.8c-6-20.7-18.9-45.3-42.1-64c-15.4-12.5-28.9-19.3-39.2-24.7c-10.7-5.7-16.9-8.8-22.9-16
	c-4.2-5.1-9.2-10.9,9-43.3c23.7-42,35.8-107.2-7.6-152.6c-30.5-31.9-76-33.5-90.1-33.2c-15.7-0.2-59,2.4-88.5,33.2
	c-43.3,45.3-31.1,110.5-7.5,152.6c18.7,33.3,16.1,35.9,10.5,41.8c-9,9.3-14.5,12.3-24.6,17.8c-9.5,5.1-21.2,11.5-37.5,24.1
	c-21.5,16.5-32.4,38.3-38.9,57.8c-5.5-10.2-7.7-21.8-7.7-34.2v-261c0-39.8,30.5-73.3,70.3-73.3h255.1c39.8,0,76.6,33.5,76.6,73.3
	L222,513.2L222,513.2z"/>
</svg>
