<?xml version="1.0" encoding="utf-8"?>
<!-- Generator: Adobe Illustrator 18.1.1, SVG Export Plug-In . SVG Version: 6.00 Build 0)  -->
<svg version="1.1" id="Layer_1" xmlns="http://www.w3.org/2000/svg" xmlns:xlink="http://www.w3.org/1999/xlink" x="0px" y="0px"
	 width="671.6px" height="671.6px" viewBox="176.2 48.2 671.6 671.6" enable-background="new 176.2 48.2 671.6 671.6"
	 xml:space="preserve">
<g>
	<g>
		<path fill="#FFFFFF" d="M621.8,148.2l-94.5-93.7c-8.4-8.4-23-8.4-31.5,0l-93.7,93.7c-8.4,8.4-8.4,23,0,31.5l0,0
			c8.4,8.4,23,8.4,31.5,0l56.1-56.1v138.2c0,12.3,10,22.3,22.3,22.3l0,0c12.3,0,22.3-10,22.3-22.3V123.6l56.1,56.1
			c8.4,8.4,23,8.4,31.5,0l0,0C630.3,171.3,630.3,157.4,621.8,148.2z"/>
		<path fill="#FFFFFF" d="M402.2,619.8l94.5,93.7c8.4,8.4,23,8.4,31.5,0l94.5-94.5c8.4-8.4,8.4-23,0-31.5l0,0
			c-8.4-8.4-23-8.4-31.5,0L535,643.6V505.3c0-12.3-10-22.3-22.3-22.3l0,0c-12.3,0-22.3,10-22.3,22.3v138.2l-56.1-56.1
			c-8.4-8.4-23-8.4-31.5,0l0,0C393.7,596.7,393.7,610.6,402.2,619.8z"/>
	</g>
	<g>
		<path fill="#FFFFFF" d="M276.2,274.2l-93.7,94.5c-8.4,8.4-8.4,23,0,31.5l94.5,94.5c8.4,8.4,23,8.4,31.5,0l0,0
			c8.4-8.4,8.4-23,0-31.5L252.4,407h138.2c12.3,0,22.3-10,22.3-22.3l0,0c0-12.3-10-22.3-22.3-22.3H252.4l56.1-56.1
			c8.4-8.4,8.4-23,0-31.5l0,0C299.3,265.7,285.4,265.7,276.2,274.2z"/>
		<path fill="#FFFFFF" d="M747.8,493.8l93.7-94.5c8.4-8.4,8.4-23,0-31.5l-93.7-93.7c-8.4-8.4-23-8.4-31.5,0l0,0
			c-8.4,8.4-8.4,23,0,31.5l56.1,56.1H634.1c-12.3,0-22.3,10-22.3,22.3l0,0c0,12.3,10,22.3,22.3,22.3h138.2l-56.1,56.1
			c-8.4,8.4-8.4,23,0,31.5l0,0C724.7,502.3,738.6,502.3,747.8,493.8z"/>
	</g>
</g>
</svg>
