<?xml version="1.0" encoding="utf-8"?>
<!-- Generator: Adobe Illustrator 18.1.1, SVG Export Plug-In . SVG Version: 6.00 Build 0)  -->
<svg version="1.1" id="Layer_1" xmlns="http://www.w3.org/2000/svg" xmlns:xlink="http://www.w3.org/1999/xlink" x="0px" y="0px"
	 width="780px" height="768px" viewBox="116 0 780 768" enable-background="new 116 0 780 768" xml:space="preserve">
<g>
	<path fill="#FFFFFF" d="M333.9,235.4c48.9,0,88.7,39.8,88.7,88.7c0,26.5-11.7,51.4-32.2,68.4c-4.6,3.8-7.1,9.6-6.6,15.5
		c0.4,5.9,3.7,11.3,8.8,14.4c34.3,20.8,54.7,57,54.7,96.9c0,26.9-9,35.1-17.8,39.6c-14.7,7.5-39.8,8.1-62.1,8.1l0,0
		c-5.2,0-10.5,0-16-0.1c-5.7,0-11.6-0.1-17.6-0.1s-11.8,0-17.6,0.1c-5.4,0-10.8,0.1-16,0.1c-65,0-79.9-8.9-79.9-47.7
		c0-39.9,20.5-76.1,54.7-96.9c5.1-3.1,8.4-8.5,8.8-14.4s-2-11.7-6.6-15.5c-20.5-16.9-32.2-41.9-32.2-68.4
		C245.1,275.2,284.9,235.4,333.9,235.4 M333.9,187.4c-75.4,0-136.7,61.3-136.7,136.7c0,28.6,8.9,56,25,78.9
		c-11.4,10.9-21.2,23.5-29,37.2c-13.6,24-20.7,51.4-20.7,79.2c0,16.4,2.1,29.4,6.5,41c6.4,16.5,17.3,29.5,32.5,38.6
		c22.4,13.4,50.7,16.1,88.9,16.1c5.3,0,10.7,0,15.9-0.1h0.4c5.3,0,11.3-0.1,17.2-0.1c5.2,0,10.5,0,15.6,0.1h1.6h2.3
		c4.6,0,9.4,0.1,14,0.1c29.1,0,59.6-1,83.8-13.3c14.1-7.1,24.9-17.4,32.4-30.7c7.9-14.1,11.8-31,11.8-51.7
		c0-27.8-7.2-55.2-20.7-79.2c-7.8-13.7-17.6-26.3-29-37.2c16.1-22.8,25-50.2,25-78.8c0-18.4-3.6-36.3-10.8-53.2
		c-6.9-16.3-16.7-30.9-29.3-43.4c-12.5-12.5-27.1-22.4-43.4-29.3C370.2,191,352.3,187.4,333.9,187.4L333.9,187.4z"/>
	<path fill="#FFFFFF" d="M690.1,235.4c48.9,0,88.7,39.8,88.7,88.7c0,26.5-11.7,51.4-32.2,68.4c-4.6,3.8-7.1,9.6-6.6,15.5
		c0.4,5.9,3.7,11.3,8.8,14.4c34.3,20.8,54.7,57,54.7,96.9c0,26.9-9,35.1-17.8,39.6c-14.7,7.5-39.8,8.1-62.1,8.1l0,0
		c-5.2,0-10.5,0-16-0.1c-5.7,0-11.6-0.1-17.6-0.1s-11.8,0-17.6,0.1c-5.4,0-10.8,0.1-16,0.1c-65,0-79.9-8.9-79.9-47.7
		c0-39.9,20.5-76.1,54.7-96.9c5.1-3.1,8.4-8.5,8.8-14.4c0.4-5.9-2-11.7-6.6-15.5c-20.5-16.9-32.2-41.9-32.2-68.4
		C601.4,275.2,641.2,235.4,690.1,235.4 M690.1,187.4c-75.4,0-136.7,61.3-136.7,136.7c0,28.6,8.9,56,25,78.9
		c-11.4,10.9-21.2,23.5-29,37.2c-13.6,24-20.7,51.4-20.7,79.2c0,16.4,2.1,29.4,6.5,41c6.4,16.5,17.3,29.5,32.5,38.6
		c22.4,13.4,50.7,16.1,88.9,16.1c5.3,0,10.7,0,15.9-0.1h0.4c5.3,0,11.3-0.1,17.2-0.1c5.2,0,10.5,0,15.6,0.1h1.6h2.3
		c4.6,0,9.4,0.1,14,0.1c29.1,0,59.6-1,83.8-13.3c14.1-7.1,24.9-17.4,32.4-30.7c7.9-14.1,11.8-31,11.8-51.7
		c0-27.8-7.2-55.2-20.7-79.2c-7.8-13.7-17.6-26.3-29-37.2c16.1-22.8,25-50.2,25-78.8c0-18.4-3.6-36.3-10.8-53.2
		c-6.9-16.3-16.7-30.9-29.3-43.4c-12.5-12.5-27.1-22.4-43.4-29.3C726.5,191,708.6,187.4,690.1,187.4L690.1,187.4z"/>
</g>
</svg>
