<?xml version="1.0" encoding="utf-8"?>
<!-- Generator: Adobe Illustrator 18.1.1, SVG Export Plug-In . SVG Version: 6.00 Build 0)  -->
<svg version="1.1" id="Layer_1" xmlns="http://www.w3.org/2000/svg" xmlns:xlink="http://www.w3.org/1999/xlink" x="0px" y="0px"
	 width="1024px" height="768px" viewBox="0 0 1024 768" enable-background="new 0 0 1024 768" xml:space="preserve">
<g>
	<path fill="#FFFFFF" d="M203.2,235.4c48.9,0,88.7,39.8,88.7,88.7c0,26.5-11.7,51.4-32.2,68.4c-4.6,3.8-7.1,9.6-6.6,15.5
		c0.4,5.9,3.7,11.3,8.8,14.4c34.3,20.8,54.7,57,54.7,96.9c0,26.9-9,35.1-17.8,39.6c-14.7,7.5-39.8,8.1-62.1,8.1l0,0
		c-5.2,0-10.5,0-16-0.1c-5.7,0-11.6-0.1-17.6-0.1s-11.8,0-17.6,0.1c-5.4,0-10.8,0.1-16,0.1c-65,0-79.9-8.9-79.9-47.7
		c0-39.9,20.5-76.1,54.7-96.9c5.1-3.1,8.4-8.5,8.8-14.4c0.4-5.9-2-11.7-6.6-15.5c-20.5-16.9-32.2-41.9-32.2-68.4
		C114.5,275.2,154.3,235.4,203.2,235.4 M203.2,187.4c-75.4,0-136.7,61.3-136.7,136.7c0,28.6,8.9,56,25,78.9
		c-11.4,10.9-21.2,23.5-29,37.2c-13.6,24-20.7,51.4-20.7,79.2c0,16.4,2.1,29.4,6.5,41c6.4,16.5,17.3,29.5,32.5,38.6
		c22.4,13.4,50.7,16.1,88.9,16.1c5.3,0,10.7,0,15.9-0.1h0.4c5.3,0,11.3-0.1,17.2-0.1c5.2,0,10.5,0,15.6,0.1h1.6h2.3
		c4.6,0,9.4,0.1,14,0.1c29.1,0,59.6-1,83.8-13.3c14.1-7.1,24.9-17.4,32.4-30.7c7.9-14.1,11.8-31,11.8-51.7
		c0-27.8-7.2-55.2-20.7-79.2c-7.8-13.7-17.6-26.3-29-37.2c16.1-22.8,25-50.2,25-78.8c0-18.4-3.6-36.3-10.8-53.2
		c-6.9-16.3-16.7-30.9-29.3-43.4c-12.5-12.5-27.1-22.4-43.4-29.3C239.5,191,221.6,187.4,203.2,187.4L203.2,187.4z"/>
	<path fill="#FFFFFF" d="M559.4,235.4c48.9,0,88.7,39.8,88.7,88.7c0,26.5-11.7,51.4-32.2,68.4c-4.6,3.8-7.1,9.6-6.6,15.5
		c0.4,5.9,3.7,11.3,8.8,14.4c34.3,20.8,54.7,57,54.7,96.9c0,26.9-9,35.1-17.8,39.6c-14.7,7.5-39.8,8.1-62.1,8.1l0,0
		c-5.2,0-10.5,0-16-0.1c-5.7,0-11.6-0.1-17.6-0.1s-11.8,0-17.6,0.1c-5.4,0-10.8,0.1-16,0.1c-65,0-79.9-8.9-79.9-47.7
		c0-39.9,20.5-76.1,54.7-96.9c5.1-3.1,8.4-8.5,8.8-14.4s-2-11.7-6.6-15.5c-20.5-16.9-32.2-41.9-32.2-68.4
		C470.7,275.2,510.5,235.4,559.4,235.4 M559.4,187.4c-75.4,0-136.7,61.3-136.7,136.7c0,28.6,8.9,56,25,78.9
		c-11.4,10.9-21.2,23.5-29,37.2c-13.6,24-20.7,51.4-20.7,79.2c0,16.4,2.1,29.4,6.5,41c6.4,16.5,17.3,29.5,32.5,38.6
		c22.4,13.4,50.7,16.1,88.9,16.1c5.3,0,10.7,0,15.9-0.1h0.4c5.3,0,11.3-0.1,17.2-0.1c5.2,0,10.5,0,15.6,0.1h1.6h2.3
		c4.6,0,9.4,0.1,14,0.1c29.1,0,59.6-1,83.8-13.3c14.1-7.1,24.9-17.4,32.4-30.7c7.9-14.1,11.8-31,11.8-51.7
		c0-27.8-7.2-55.2-20.7-79.2c-7.8-13.7-17.6-26.3-29-37.2c16.1-22.8,25-50.2,25-78.8c0-18.4-3.6-36.3-10.8-53.2
		c-6.9-16.3-16.7-30.9-29.3-43.4c-12.5-12.5-27.1-22.4-43.4-29.3C595.8,191,577.9,187.4,559.4,187.4L559.4,187.4z"/>
	<path fill="#FFFFFF" d="M867,370.2c29,0,52.6,23.6,52.6,52.7c0,15.7-7,30.5-19.1,40.6c-2.7,2.3-4.2,5.7-3.9,9.2s2.2,6.7,5.2,8.6
		c20.3,12.3,32.5,33.8,32.5,57.5c0,16-5.3,20.8-10.6,23.5c-8.8,4.4-23.6,4.8-36.8,4.8l0,0c-3.1,0-6.2,0-9.5,0
		c-3.4,0-6.9-0.1-10.4-0.1s-7,0-10.4,0.1c-3.2,0-6.4,0.1-9.5,0.1c-38.6,0-47.4-5.3-47.4-28.3c0-23.7,12.1-45.2,32.5-57.5
		c3-1.8,5-5,5.2-8.6c0.3-3.5-1.2-7-3.9-9.2c-12.1-10-19.1-24.8-19.1-40.6C814.3,393.9,837.9,370.2,867,370.2 M867,322.3
		c-55.5,0-100.6,45.1-100.6,100.6c0,15.6,3.6,30.7,10.2,44.3c-3.8,4.7-7.1,9.7-10.1,15c-9.7,17.2-14.8,36.7-14.8,56.6
		c0,12.2,1.6,22.1,5.2,31.3c5.3,13.8,14.8,25.1,27.5,32.6c17.2,10.2,36.7,12.3,62.8,12.3c3.2,0,6.4,0,9.6-0.1h0.3c3.1,0,6.6,0,10,0
		c3,0,6.1,0,9.1,0h0.9h1.4c2.8,0,5.6,0,8.4,0c19.6,0,40.3-0.8,58.5-10c11.9-6,21.1-14.8,27.4-26c6.4-11.4,9.5-24.5,9.5-40.3
		c0-19.9-5.1-39.4-14.8-56.6c-3-5.3-6.3-10.3-10.1-15c6.7-13.6,10.2-28.7,10.2-44.3c0-13.6-2.7-26.7-7.9-39.2
		c-5.1-12-12.3-22.7-21.5-32c-9.2-9.2-20-16.5-32-21.5C893.7,324.9,880.5,322.3,867,322.3L867,322.3z"/>
	<g>
		<path fill="#FFFFFF" d="M859,293c-13.3,0-24-10.7-24-24v-92c0-13.3,10.7-24,24-24s24,10.7,24,24v92C883,282.3,872.3,293,859,293z"
			/>
	</g>
	<g>
		<path fill="#FFFFFF" d="M905.1,247H813c-13.3,0-24-10.7-24-24s10.7-24,24-24h92.1c13.3,0,24,10.7,24,24S918.3,247,905.1,247z"/>
	</g>
</g>
</svg>
