<?xml version="1.0" encoding="utf-8"?>
<!-- Generator: Adobe Illustrator 18.1.1, SVG Export Plug-In . SVG Version: 6.00 Build 0)  -->
<svg version="1.1" id="Layer_1" xmlns="http://www.w3.org/2000/svg" xmlns:xlink="http://www.w3.org/1999/xlink" x="0px" y="0px"
	 width="160px" height="30px" viewBox="-551 370 160 30" enable-background="new -551 370 160 30" xml:space="preserve">
<g>
	<path fill="#FFFFFF" d="M-501.1,384.8l1.4,0h0.7c0.6,0,1.2,0,1.8-0.1c0.5,0,0.8-0.1,0.8-0.1l0.1,1c-0.6,0.4-1,1.2-1.2,2.3
		c-0.3,1.6-0.5,2.8-0.5,3.7l0,0.9l-0.3,0.3c-0.5,0.3-1.4,0.5-2.6,0.8c-1.2,0.2-2.4,0.4-3.5,0.4c-2.2,0-4-0.7-5.3-2
		c-1.3-1.3-1.9-3.1-1.9-5.4c0-3.3,0.9-6,2.8-7.9c1.8-2,4.3-3,7.4-3c1.3,0,3.1,0.2,5.4,0.7l0.1,0.4c-0.5,1.4-1,3-1.3,5l-2.7,0.2
		c0.2-0.8,0.2-1.4,0.2-1.7c0-1.3-0.9-1.9-2.7-1.9c-1.6,0-2.8,0.7-3.6,2c-0.9,1.3-1.3,3.3-1.3,5.8c0,1.7,0.3,3.1,0.9,4
		c0.6,0.9,1.5,1.4,2.7,1.4c0.5,0,0.9-0.1,1.4-0.2c0.4-0.1,0.9-0.3,1.3-0.5c0.2-1.9,0.3-2.9,0.3-3.2c0-0.2-0.1-0.4-0.2-0.5
		c-0.1-0.1-0.4-0.2-0.9-0.2h-1.4l-0.1-0.2l0.5-1.9h0.1l0.9,0H-501.1z"/>
	<path fill="#FFFFFF" d="M-487.4,394.1c-2.1,0-3.8-0.7-5.1-2c-1.3-1.3-1.9-3.1-1.9-5.4c0-3.3,0.9-5.9,2.7-7.9c1.8-2,4.1-3,7-3
		c2.2,0,3.9,0.6,5.1,1.9c1.3,1.3,1.9,3,1.9,5.3c0,3.3-0.9,5.9-2.7,8C-482.2,393.1-484.5,394.1-487.4,394.1z M-486.7,391.7
		c1.5,0,2.6-0.7,3.5-2.2c0.9-1.4,1.3-3.4,1.3-6c0-1.6-0.3-2.9-0.9-3.8c-0.6-0.9-1.5-1.4-2.6-1.4c-1.4,0-2.6,0.7-3.4,2.2
		c-0.8,1.4-1.3,3.5-1.3,6c0,1.6,0.3,2.9,0.9,3.8C-488.6,391.3-487.8,391.7-486.7,391.7z"/>
	<path fill="#FFFFFF" d="M-461.3,376.1l2.6,0c0.3,0,1.5,0,3.4-0.1l0.1,0.1l-0.4,1.6c-0.8,0.1-1.3,0.2-1.6,0.4
		c-0.3,0.2-0.5,0.6-0.5,1.1c-0.2,1.9-0.4,5.3-0.5,10.3c0,0.2,0,0.5,0,1c0,0.4,0.1,0.8,0.2,1.1c0.1,0.3,0.4,0.5,0.8,0.5l0.8-0.1
		l0.1,0.1l-0.4,1.8c-1.1-0.1-1.9-0.1-2.5-0.1c-0.6,0-1.4,0-2.5,0.1c-1.1,0.1-1.6,0.1-1.7,0.1l0.4-1.8c0.5-0.1,0.9-0.2,1.2-0.4
		c0.2-0.2,0.4-0.5,0.5-0.9l0.7-9.4h-0.2c-2.1,4.7-4,8.9-5.5,12.6l-2,0.2c-0.8-4.2-1.6-8.5-2.4-12.8h-0.2c-1.2,6.3-1.7,9.6-1.7,9.9
		c0,0.5,0.2,0.7,0.7,0.7l0.9,0l0.1,0.1l-0.5,1.8c-1.5-0.1-2.6-0.1-3.2-0.1l-2.7,0.2l0.4-1.8c0.5-0.1,0.9-0.3,1.2-0.5
		c0.3-0.3,0.5-0.8,0.6-1.4c1.6-7.1,2.3-10.9,2.3-11.3c0-0.4-0.1-0.6-0.4-0.8c-0.3-0.2-0.7-0.3-1.4-0.3l-0.1-0.2l0.4-1.6
		c1.6,0.1,2.7,0.1,3.4,0.1l2.9-0.1c0.5,3.9,1.2,7.7,2,11.4h0.2C-464.4,384-462.9,380.2-461.3,376.1z"/>
	<path fill="#FFFFFF" d="M-447.3,394.1c-2.1,0-3.8-0.7-5.1-2c-1.3-1.3-1.9-3.1-1.9-5.4c0-3.3,0.9-5.9,2.7-7.9c1.8-2,4.1-3,7-3
		c2.2,0,3.9,0.6,5.1,1.9c1.3,1.3,1.9,3,1.9,5.3c0,3.3-0.9,5.9-2.7,8C-442,393.1-444.4,394.1-447.3,394.1z M-446.6,391.7
		c1.5,0,2.6-0.7,3.5-2.2c0.9-1.4,1.3-3.4,1.3-6c0-1.6-0.3-2.9-0.9-3.8c-0.6-0.9-1.5-1.4-2.6-1.4c-1.4,0-2.6,0.7-3.4,2.2
		c-0.8,1.4-1.3,3.5-1.3,6c0,1.6,0.3,2.9,0.9,3.8C-448.5,391.3-447.6,391.7-446.6,391.7z"/>
	<path fill="#FFFFFF" d="M-425.8,384.8l1.4,0h0.7c0.6,0,1.2,0,1.8-0.1c0.5,0,0.8-0.1,0.8-0.1l0.1,1c-0.6,0.4-1,1.2-1.2,2.3
		c-0.3,1.6-0.5,2.8-0.5,3.7l0,0.9l-0.3,0.3c-0.5,0.3-1.4,0.5-2.6,0.8s-2.4,0.4-3.5,0.4c-2.2,0-4-0.7-5.3-2c-1.3-1.3-1.9-3.1-1.9-5.4
		c0-3.3,0.9-6,2.8-7.9c1.8-2,4.3-3,7.4-3c1.3,0,3.1,0.2,5.4,0.7l0.1,0.4c-0.5,1.4-1,3-1.3,5l-2.7,0.2c0.2-0.8,0.2-1.4,0.2-1.7
		c0-1.3-0.9-1.9-2.7-1.9c-1.6,0-2.8,0.7-3.6,2c-0.9,1.3-1.3,3.3-1.3,5.8c0,1.7,0.3,3.1,0.9,4c0.6,0.9,1.5,1.4,2.7,1.4
		c0.5,0,0.9-0.1,1.4-0.2c0.4-0.1,0.9-0.3,1.3-0.5c0.2-1.9,0.3-2.9,0.3-3.2c0-0.2-0.1-0.4-0.2-0.5c-0.1-0.1-0.4-0.2-0.9-0.2h-1.4
		l-0.1-0.2l0.5-1.9h0.1l0.9,0H-425.8z"/>
	<path fill="#FFFFFF" d="M-412.1,394.1c-2.1,0-3.8-0.7-5.1-2c-1.3-1.3-1.9-3.1-1.9-5.4c0-3.3,0.9-5.9,2.7-7.9c1.8-2,4.1-3,7-3
		c2.2,0,3.9,0.6,5.1,1.9c1.3,1.3,1.9,3,1.9,5.3c0,3.3-0.9,5.9-2.7,8C-406.9,393.1-409.2,394.1-412.1,394.1z M-411.4,391.7
		c1.5,0,2.6-0.7,3.5-2.2c0.9-1.4,1.3-3.4,1.3-6c0-1.6-0.3-2.9-0.9-3.8c-0.6-0.9-1.5-1.4-2.6-1.4c-1.4,0-2.6,0.7-3.4,2.2
		c-0.8,1.4-1.3,3.5-1.3,6c0,1.6,0.3,2.9,0.9,3.8C-413.4,391.3-412.5,391.7-411.4,391.7z"/>
</g>
<circle fill="#FFFFFF" cx="-531.4" cy="384.6" r="14.6"/>
</svg>
