<?xml version="1.0" encoding="utf-8"?>
<!-- Generator: Adobe Illustrator 18.1.1, SVG Export Plug-In . SVG Version: 6.00 Build 0)  -->
<svg version="1.1" id="Layer_1" xmlns="http://www.w3.org/2000/svg" xmlns:xlink="http://www.w3.org/1999/xlink" x="0px" y="0px"
	 width="230px" height="60px" viewBox="-586 355 230 60" enable-background="new -586 355 230 60" xml:space="preserve">
<g>
	<g>
		<path fill="#081B6D" d="M-398.6,381.6h3.7c-1.7-7.9-8.4-11.2-14.9-11.2c-8.3,0-16.7,5.6-16.7,16.7c0,11.1,8.4,16.6,16.7,16.6
			c6,0,12.2-2.6,14.5-9.4c1.1-3.2,1.1-6.3,0.9-9.4L-398.6,381.6z M-409.8,396c-5,0-8.1-3.5-8.1-8.9c0-4.9,2.9-9.1,8.1-9.1
			c0.9,0,1.6,0.1,2.3,0.2l4.3,3.3h3.2l-1.3,3.3h-8.5v2.3l-5.2,0.8l5.2,4.1h6.9C-404.3,395.1-406.5,396-409.8,396z"/>
		<path fill="#081B6D" d="M-526.8,370.2c-8.4,0-16.8,5.7-16.8,16.9c0,11.3,8,16.8,16.6,16.8c9.8,0,16.7-6.9,16.7-16.8
			C-510.3,375.8-518.5,370.2-526.8,370.2z M-526.9,395.9c-4.2,0-8.2-3-8.2-8.8c0-5.9,4-8.8,8.3-8.8c4,0,8.1,3,8.1,8.8
			C-518.8,392.9-522.9,395.9-526.9,395.9z"/>
		<path fill="#081B6D" d="M-448.1,370.2c-8.4,0-16.8,5.7-16.8,16.9c0,11.3,8,16.8,16.6,16.8c9.8,0,16.7-6.9,16.7-16.8
			C-431.6,375.8-439.8,370.2-448.1,370.2z M-448.2,395.9c-4.2,0-8.2-3-8.2-8.8c0-5.9,4-8.8,8.3-8.8c4,0,8.1,3,8.1,8.8
			C-440,392.9-444.2,395.9-448.2,395.9z"/>
		<path fill="#081B6D" d="M-372.6,370.2c-8.4,0-16.8,5.7-16.8,16.9c0,11.3,8,16.8,16.6,16.8c9.8,0,16.7-6.9,16.7-16.8
			C-356,375.8-364.3,370.2-372.6,370.2z M-372.7,395.9c-4.2,0-8.2-3-8.2-8.8c0-5.9,4-8.8,8.3-8.8c4,0,8.1,3,8.1,8.8
			C-364.5,392.9-368.6,395.9-372.7,395.9z"/>
		<polygon fill="#081B6D" points="-482.3,376.4 -481.3,378 -487.6,384.8 -500.5,370.7 -505.7,366.7 -505.7,375.7 -503.5,373.6 
			-503.5,392.1 -506.5,389.3 -508.7,399.2 -503.5,403.3 -495,403.3 -495,388.3 -493.3,390.1 -493.3,391.5 -488.1,395.5 
			-487.1,395.5 -480.2,388.3 -480.2,395.4 -485.4,399.2 -480.2,403.3 -471.7,403.3 -471.7,370.7 -476.9,366.7 		"/>
		<path fill="#081B6D" d="M-552.9,381.6h3.7c-1.7-7.9-8.4-11.2-14.9-11.2c-8.3,0-16.7,5.6-16.7,16.7c0,11.1,8.4,16.6,16.7,16.6
			c6,0,12.2-2.6,14.5-9.4c1.1-3.2,1.1-6.3,0.9-9.4L-552.9,381.6z M-556.8,384.9h-4.1l-1.2-1.9l-7.2,5l5.2,4.1h6.9
			c-1.5,3.1-3.7,3.9-7,3.9c-5,0-8.1-3.5-8.1-8.9c0-4.9,2.9-9.1,8.1-9.1c0.9,0,1.6,0.1,2.3,0.2l4.3,3.3h2.4l-2.1,1.4L-556.8,384.9z"
			/>
	</g>
	<g>
		<path fill="#FFFFFF" d="M-569.3,366.3c6.5,0,13.2,3.3,14.9,11.2h-8.3c-1.4-2.6-3.5-3.6-6.6-3.6c-5.2,0-8.1,4.1-8.1,9.1
			c0,5.4,3.2,8.9,8.1,8.9c3.3,0,5.5-0.8,7-3.9h-6.9v-7.1h15.3c0.2,3.2,0.2,6.3-0.9,9.4c-2.4,6.8-8.5,9.4-14.5,9.4
			c-8.3,0-16.7-5.5-16.7-16.6C-586,371.9-577.6,366.3-569.3,366.3z"/>
		<path fill="#FFFFFF" d="M-532.2,399.8c-8.6,0-16.6-5.6-16.6-16.8c0-11.2,8.3-16.9,16.8-16.9c8.3,0,16.6,5.7,16.6,16.9
			C-515.5,392.9-522.4,399.8-532.2,399.8z M-532.2,391.8c4,0,8.2-3,8.2-8.8c0-5.8-4-8.8-8.1-8.8c-4.2,0-8.3,2.9-8.3,8.8
			C-540.3,388.8-536.3,391.8-532.2,391.8z"/>
		<path fill="#FFFFFF" d="M-479.9,366.7h3v32.6h-8.5v-15l-6.9,7.2h-1l-6.9-7.2v15h-8.5v-32.6h3l12.9,14.1L-479.9,366.7z"/>
		<path fill="#FFFFFF" d="M-453.5,399.8c-8.6,0-16.6-5.6-16.6-16.8c0-11.2,8.3-16.9,16.8-16.9c8.3,0,16.6,5.7,16.6,16.9
			C-436.8,392.9-443.6,399.8-453.5,399.8z M-453.4,391.8c4,0,8.2-3,8.2-8.8c0-5.8-4-8.8-8.1-8.8c-4.2,0-8.3,2.9-8.3,8.8
			C-461.6,388.8-457.6,391.8-453.4,391.8z"/>
		<path fill="#FFFFFF" d="M-415,366.3c6.5,0,13.2,3.3,14.9,11.2h-8.3c-1.4-2.6-3.5-3.6-6.6-3.6c-5.2,0-8.1,4.1-8.1,9.1
			c0,5.4,3.2,8.9,8.1,8.9c3.3,0,5.5-0.8,7-3.9h-6.9v-7.1h15.3c0.2,3.2,0.2,6.3-0.9,9.4c-2.4,6.8-8.5,9.4-14.5,9.4
			c-8.3,0-16.7-5.5-16.7-16.6C-431.7,371.9-423.3,366.3-415,366.3z"/>
		<path fill="#FFFFFF" d="M-377.9,399.8c-8.6,0-16.6-5.6-16.6-16.8c0-11.2,8.3-16.9,16.8-16.9c8.3,0,16.6,5.7,16.6,16.9
			C-361.2,392.9-368.1,399.8-377.9,399.8z M-377.9,391.8c4,0,8.2-3,8.2-8.8c0-5.8-4-8.8-8.1-8.8c-4.2,0-8.3,2.9-8.3,8.8
			C-386.1,388.8-382.1,391.8-377.9,391.8z"/>
	</g>
</g>
</svg>
