<?xml version="1.0" encoding="utf-8"?>
<!-- Generator: Adobe Illustrator 18.1.1, SVG Export Plug-In . SVG Version: 6.00 Build 0)  -->
<svg version="1.1" id="Layer_1" xmlns="http://www.w3.org/2000/svg" xmlns:xlink="http://www.w3.org/1999/xlink" x="0px" y="0px"
	 width="530px" height="530px" viewBox="-246 120 530 530" enable-background="new -246 120 530 530" xml:space="preserve">
<g>
	<g>
		<path fill="#E8E8E8" d="M18.1,642.4l-155.6-175.9c-48.4-58.6-61.2-132.6-35.7-204c25.5-68.8,81.6-117.3,153-130
			c25.5-5.1,51-5.1,76.5,0c71.4,12.7,127.5,61.2,153,130s12.7,145.3-35.7,201.4l0,0L18.1,642.4z M18.1,183.4c-10.2,0-20.4,0-28,2.5
			c-53.5,10.2-96.9,45.9-114.7,96.9c-17.8,53.5-10.2,109.6,25.5,153l117.3,130l117.3-132.6c35.7-43.3,45.9-99.4,25.5-153
			c-17.8-51-61.2-86.7-114.7-96.9C38.5,183.4,28.3,183.4,18.1,183.4z"/>
	</g>
	<g>
		<path fill="#E8E8E8" d="M18.1,438.4c-58.6,0-104.5-45.9-104.5-102s45.9-102,104.5-102s104.5,45.9,104.5,102S76.7,438.4,18.1,438.4
			z M18.1,285.4c-30.6,0-53.5,22.9-53.5,51s22.9,51,53.5,51s53.5-22.9,53.5-51S48.7,285.4,18.1,285.4z"/>
	</g>
</g>
</svg>
