<?xml version="1.0" encoding="utf-8"?>
<!-- Generator: Adobe Illustrator 18.1.1, SVG Export Plug-In . SVG Version: 6.00 Build 0)  -->
<svg version="1.1" id="Layer_1" xmlns="http://www.w3.org/2000/svg" xmlns:xlink="http://www.w3.org/1999/xlink" x="0px" y="0px"
	 width="530px" height="530px" viewBox="-246 120 530 530" enable-background="new -246 120 530 530" xml:space="preserve">
<g>
	<g>
		<g>
			<path fill="#E8E8E8" d="M234.5,303.5V575h-429.8V303H234 M238.8,255h-436.2c-25.4,0-46.1,18.9-46.1,44.2v275
				c0,25.4,20.8,47.8,46.1,47.8h436.2c25.4,0,42.7-22.5,42.7-47.8v-275C281.5,273.9,264.1,255,238.8,255L238.8,255z"/>
		</g>
	</g>
	<g>
		<path fill="#E8E8E8" d="M109,245.5c-13.1,0-23.5-10.6-23.5-23.6V195h-132v26.8c0,13.1-10.9,23.6-24,23.6s-24-10.6-24-23.6v-41.6
			c0-18.3,15.8-32.2,34-32.2h160.8c18.3,0,32.1,13.9,32.1,32.2v41.6C132.5,234.9,122.1,245.5,109,245.5z"/>
	</g>
</g>
</svg>
